<svg xmlns="http://www.w3.org/2000/svg" viewBox="0 0 400 120" width="400" height="120">
  <!-- Horizontal side-view sedan, faces right; transparent background -->
  <ellipse cx="200" cy="102" rx="170" ry="6" fill="#000" opacity="0.13"/>
  <path fill="#dc2626" stroke="#991b1b" stroke-width="1.15" stroke-linejoin="round"
    d="M 48 88
       L 54 60
       L 92 54
       L 128 52
       L 150 32
       L 162 29
       L 268 26
       L 314 38
       L 354 50
       L 368 66
       L 372 82
       L 372 90
       L 358 92
       L 342 92
       L 334 76
       L 318 72
       L 302 76
       L 292 92
       L 258 92
       L 248 76
       L 228 72
       L 212 76
       L 202 92
       L 168 92
       L 158 76
       L 138 72
       L 122 76
       L 112 92
       L 78 92
       L 68 76
       L 56 76
       L 48 84
       Z"/>
  <path fill="#0f172a" opacity="0.9"
    d="M 152 34 L 262 28 L 308 40 L 300 50 L 138 50 Z"/>
  <path fill="#0f172a" opacity="0.4" d="M 92 54 L 128 52 L 134 50 L 96 56 Z"/>
  <circle cx="120" cy="90" r="16" fill="#0a0a0a"/>
  <circle cx="276" cy="90" r="16" fill="#0a0a0a"/>
  <circle cx="120" cy="90" r="7" fill="#52525b"/>
  <circle cx="276" cy="90" r="7" fill="#52525b"/>
</svg>
